<svg width="2718" height="1279" viewBox="0 0 2718 1279" fill="none" xmlns="http://www.w3.org/2000/svg">
<path opacity="0.3" d="M2695.1 370.989L2494.77 406.472C2486.4 380.846 2473.09 356.452 2454.86 333.289C2437.12 310.127 2412.97 291.154 2382.41 276.37C2351.86 261.586 2313.67 254.194 2267.84 254.194C2205.25 254.194 2153.01 268.239 2111.12 296.329C2069.23 323.926 2048.29 359.655 2048.29 403.515C2048.29 441.461 2062.33 472.015 2090.42 495.177C2118.51 518.339 2163.85 537.313 2226.44 552.097L2406.81 593.493C2511.28 617.64 2589.15 654.847 2640.4 705.114C2691.65 755.381 2717.28 820.678 2717.28 901.006C2717.28 969.013 2697.57 1029.63 2658.14 1082.85C2619.21 1135.58 2564.75 1176.98 2494.77 1207.04C2425.29 1237.1 2344.71 1252.13 2253.05 1252.13C2125.91 1252.13 2022.17 1225.03 1941.84 1170.82C1861.51 1116.12 1812.23 1038.5 1794 937.966L2007.63 905.441C2020.94 961.128 2048.29 1003.26 2089.69 1031.85C2131.08 1059.94 2185.04 1073.98 2251.57 1073.98C2324.02 1073.98 2381.92 1058.95 2425.29 1028.89C2468.66 998.335 2490.34 961.128 2490.34 917.268C2490.34 881.786 2477.03 851.971 2450.42 827.824C2424.3 803.676 2384.14 785.442 2329.93 773.122L2137.73 730.987C2031.78 706.839 1953.42 668.4 1902.66 615.669C1852.4 562.939 1827.26 496.163 1827.26 415.342C1827.26 348.32 1845.99 289.676 1883.44 239.409C1920.9 189.143 1972.64 149.965 2038.68 121.874C2104.72 93.2915 2180.36 79 2265.62 79C2388.33 79 2484.92 105.612 2555.39 158.835C2625.86 211.566 2672.43 282.284 2695.1 370.989Z" fill="#F1FBFF" fill-opacity="0.14"/>
<path d="M667 0.00012207H921.632L1364.35 983.34H1380.65L1823.37 0.00012207H2078V1265H1878.37V349.605H1865.47L1455.34 1263.15H1289.66L879.533 348.987H866.631V1265H667V0.00012207Z" fill="#F7FDFF" fill-opacity="0.1"/>
<path opacity="0.1" d="M1081.79 238.536C994.982 151.631 883.629 91.7211 761.818 66.3837C640.006 41.0463 513.208 51.4189 397.456 96.19C281.704 140.961 182.198 218.12 111.521 317.909C40.8447 417.698 2.17125 535.635 0.391723 656.807C-1.3878 777.979 33.8065 896.943 101.524 998.656C169.242 1100.37 266.441 1180.26 380.831 1228.23C495.22 1276.2 621.663 1290.09 744.168 1268.15C866.674 1246.21 979.741 1189.42 1069.07 1104.96L984.489 1020.29C912.373 1088.47 821.094 1134.32 722.195 1152.04C623.296 1169.75 521.218 1158.53 428.871 1119.81C336.523 1081.08 258.054 1016.58 203.385 934.47C148.717 852.357 120.304 756.316 121.741 658.494C123.177 560.671 154.399 465.46 211.456 384.9C268.514 304.339 348.845 242.049 442.292 205.905C535.739 169.761 638.104 161.387 736.443 181.842C834.782 202.297 924.677 250.663 994.762 320.822L1081.79 238.536Z" fill="#FAFEFF"/>
</svg>
