<svg width="114" height="53" viewBox="0 0 114 53" fill="none" xmlns="http://www.w3.org/2000/svg">
<path d="M13.5981 27.5977C13.723 28.8223 13.773 29.4721 12.7733 30.5218C11.7487 31.5964 9.14951 33.6208 6.47537 35.1703C5.35074 35.8201 3.85122 36.5948 2.7016 37.0197C1.85187 37.3196 1.1271 37.4445 0.777218 36.8447C0.55229 36.4449 0.652258 36.095 0.777218 35.7701C1.70192 33.2709 4.37605 28.5724 6.1005 25.5484C6.27544 25.2485 6.45038 24.9236 6.65032 24.5987C9.32445 19.9752 12.8733 14.327 13.5731 13.4273C13.673 13.3024 13.848 13.1524 14.0229 13.2524C14.1979 13.3524 14.1729 13.5023 14.1479 13.6023C14.1229 13.7022 14.0979 13.7772 14.0979 13.8522C12.9483 18.5257 13.0732 23.0742 13.5981 27.6477V27.5977Z" fill="#00ADEE"/>
<path d="M17.5217 29.0197C16.3971 28.5199 15.8223 28.245 15.3974 26.8454C14.9726 25.4209 14.5227 22.1469 14.5227 19.0729C14.5227 15.9989 14.5977 16.0739 14.8226 14.8743C14.9726 13.9746 15.2225 13.2998 15.9472 13.2998C16.672 13.2998 16.672 13.5747 16.8969 13.8496C18.5964 15.899 21.3205 20.5475 23.0949 23.5715C23.2699 23.8714 23.4698 24.1963 23.6448 24.5212C26.2939 29.1447 29.4179 35.0428 29.8677 36.0924C29.9427 36.2424 29.9677 36.4673 29.7928 36.5673C29.6428 36.6422 29.5179 36.5673 29.4179 36.4923C29.3179 36.4173 29.2679 36.3673 29.2429 36.3173C25.7691 32.9934 21.7704 30.8191 17.5467 28.9947L17.5217 29.0197Z" fill="#00ADEE"/>
<path d="M14.3229 31.6977C15.3225 30.9729 15.8474 30.5981 17.2719 30.948C18.7214 31.2978 21.7705 32.5474 24.4446 34.0719C25.5692 34.7217 26.9938 35.6464 27.9435 36.4212C28.6432 36.996 29.1181 37.5708 28.7432 38.1706C28.5183 38.5705 28.1434 38.6455 27.7935 38.7204C25.1694 39.1703 19.7711 39.1953 16.2722 39.2203H15.1726C9.84932 39.2203 3.17648 38.9704 2.05184 38.8204C1.8769 38.8204 1.65197 38.7204 1.67696 38.5205C1.67696 38.3705 1.82691 38.2706 1.92688 38.2456C2.02685 38.2206 2.10183 38.1956 2.1768 38.1706C6.8003 36.846 10.674 34.4468 14.3729 31.6977H14.3229Z" fill="#00ADEE"/>
<path d="M45.8214 21.9091C46.3462 22.5339 46.6211 23.4586 46.6211 24.6832V27.1824C46.6211 28.7069 46.3712 30.0815 45.8714 31.2811H43.7971C44.2469 29.9815 44.4718 28.6319 44.4718 27.1824V24.7082C44.4718 24.0084 44.3719 23.5086 44.1969 23.2087C44.022 22.9088 43.6971 22.7588 43.2472 22.7588C42.7974 22.7588 42.4725 22.9088 42.2975 23.2087C42.0976 23.5086 42.0226 24.0084 42.0226 24.7082V27.5823C42.0226 28.8569 41.7227 29.8315 41.1229 30.4813C40.5231 31.1311 39.6234 31.456 38.4488 31.456C37.2742 31.456 36.4244 31.1311 35.8246 30.4813C35.2248 29.8315 34.9249 28.8818 34.9249 27.6073V24.8582C34.9249 23.6086 35.2248 22.6339 35.7747 21.9841C36.3495 21.3343 37.1992 21.0094 38.2988 21.0094C39.3985 21.0094 39.5234 21.1344 39.9733 21.3843C40.4231 21.6342 40.723 22.0091 40.898 22.5089C41.1479 21.9841 41.4978 21.6092 41.8977 21.3593C42.3225 21.1094 42.8474 21.0094 43.4972 21.0094C44.4968 21.0094 45.2716 21.3343 45.7964 21.9591V21.9091H45.8214ZM39.8983 24.8332C39.8983 24.3083 39.8483 23.8835 39.7734 23.5836C39.6734 23.2837 39.5484 23.0837 39.3235 22.9588C39.1236 22.8338 38.8237 22.7588 38.4738 22.7588C38.1239 22.7588 37.849 22.8338 37.649 22.9588C37.4491 23.0837 37.3241 23.3087 37.2242 23.5836C37.1492 23.8835 37.0992 24.3083 37.0992 24.8332V27.5573C37.0992 28.0821 37.1492 28.507 37.2242 28.8069C37.2992 29.1068 37.4491 29.3067 37.649 29.4317C37.849 29.5566 38.1239 29.6316 38.4738 29.6316C38.8237 29.6316 39.1236 29.5566 39.3235 29.4317C39.5234 29.3067 39.6734 29.0818 39.7734 28.8069C39.8733 28.507 39.8983 28.0821 39.8983 27.5573V24.8332Z" fill="#6E6E70"/>
<path d="M54.7436 21.9337C55.3434 22.5835 55.6433 23.5332 55.6433 24.8078V27.157C55.6433 28.6815 55.3934 30.0561 54.8935 31.2557H52.7942C53.2441 29.9561 53.469 28.6065 53.469 27.157V24.8328C53.469 24.3079 53.419 23.8831 53.344 23.5832C53.2691 23.2833 53.1191 23.0833 52.9192 22.9584C52.7192 22.8334 52.4443 22.7584 52.0944 22.7584C51.7446 22.7584 51.4696 22.8334 51.2697 22.9584C51.0698 23.0833 50.9448 23.3083 50.8448 23.5832C50.7449 23.8581 50.7199 24.3079 50.7199 24.8328V27.157C50.7199 28.5815 50.9448 29.9561 51.3947 31.2807H49.2954C48.7955 30.0561 48.5456 28.6815 48.5456 27.182V24.8328C48.5456 23.5582 48.8455 22.6085 49.4453 21.9587C50.0451 21.3089 50.9198 20.984 52.0695 20.984C53.2191 20.984 54.0938 21.3089 54.6936 21.9587H54.7436V21.9337Z" fill="#6E6E70"/>
<path d="M64.4654 28.1087C64.4654 30.333 63.2908 31.4326 60.9166 31.4326C58.5423 31.4326 57.3927 30.333 57.3927 28.1087C57.3927 25.8844 58.2924 25.0597 60.0668 24.8098V24.2349C60.0668 24.01 60.0169 23.8351 59.8919 23.6851C59.7669 23.5352 59.567 23.3352 59.2671 23.1103C59.0672 22.9604 58.9422 22.8104 58.8422 22.7104C58.7423 22.6105 58.6673 22.4605 58.6173 22.2856C58.5673 22.1106 58.5173 21.8857 58.5173 21.5858V21.111H60.7166V21.3359C60.7166 21.5358 60.7666 21.6858 60.8666 21.8357C60.9665 21.9607 61.1415 22.1356 61.3914 22.3356C61.6913 22.5605 61.8912 22.7854 62.0162 23.0103C62.1412 23.2353 62.2161 23.5352 62.2161 23.935V24.9097C63.7157 25.2846 64.4404 26.3343 64.4404 28.1087H64.4654ZM61.9662 29.3083C62.1912 29.0584 62.2911 28.6585 62.2911 28.0837C62.2911 27.5089 62.1912 27.134 61.9662 26.8591C61.7413 26.6092 61.3914 26.4842 60.8916 26.4842C60.3917 26.4842 60.0668 26.6092 59.8669 26.8591C59.642 27.109 59.542 27.5089 59.542 28.0837C59.542 28.6585 59.642 29.0334 59.8669 29.3083C60.0918 29.5582 60.4417 29.6832 60.9166 29.6832C61.3914 29.6832 61.7413 29.5582 61.9662 29.3083Z" fill="#6E6E70"/>
<path d="M72.3878 21.9337C72.9876 22.5835 73.2875 23.5332 73.2875 24.8078V27.157C73.2875 28.6815 73.0376 30.0561 72.5377 31.2557H70.4384C70.8883 29.9561 71.1132 28.6065 71.1132 27.157V24.8328C71.1132 24.3079 71.0632 23.8831 70.9882 23.5832C70.9133 23.2833 70.7633 23.0833 70.5634 22.9584C70.3634 22.8334 70.0885 22.7584 69.7386 22.7584C69.3887 22.7584 69.1138 22.8334 68.9389 22.9584C68.739 23.0833 68.614 23.3083 68.514 23.5832C68.4391 23.8831 68.3891 24.3079 68.3891 24.8328V27.157C68.3891 28.5815 68.614 29.9561 69.0639 31.2807H66.9645C66.4647 30.0561 66.2148 28.6815 66.2148 27.182V24.8328C66.2148 23.5582 66.5147 22.6085 67.1145 21.9587C67.7143 21.3089 68.589 20.984 69.7386 20.984C70.8883 20.984 71.763 21.3089 72.3628 21.9587L72.3878 21.9337Z" fill="#6E6E70"/>
<path d="M75.2869 21.1345H77.4612V28.0823C77.4612 28.6571 77.5861 29.057 77.8111 29.3069C78.036 29.5568 78.4358 29.6818 78.9607 29.6818C79.4855 29.6818 79.8604 29.5568 80.1103 29.3069C80.3352 29.057 80.4602 28.6571 80.4602 28.0823C80.4602 27.5075 80.4352 27.6324 80.3602 27.4325C80.2852 27.2325 80.1853 27.0076 80.0353 26.7077C79.8604 26.3578 79.7354 26.0829 79.6605 25.833C79.5855 25.5831 79.5355 25.2832 79.5355 24.9583V24.7583H81.7098C81.7098 25.0333 81.7598 25.2832 81.8347 25.4831C81.9097 25.708 82.0097 25.983 82.1596 26.3078C82.3096 26.6827 82.4346 26.9826 82.5095 27.2325C82.5845 27.4825 82.6345 27.7574 82.6345 28.1073C82.6345 30.3315 81.4099 31.4312 78.9607 31.4312C76.5115 31.4312 75.3119 30.3065 75.3119 28.1073V21.1345H75.2869Z" fill="#6E6E70"/>
<path d="M90.4569 21.9337C91.0567 22.5835 91.3566 23.5332 91.3566 24.8078V27.157C91.3566 28.6815 91.1067 30.0561 90.6068 31.2557H88.5075C88.9574 29.9561 89.1823 28.6065 89.1823 27.157V24.8328C89.1823 24.3079 89.1323 23.8831 89.0573 23.5832C88.9824 23.2833 88.8324 23.0833 88.6325 22.9584C88.4325 22.8334 88.1576 22.7584 87.8077 22.7584C87.4578 22.7584 87.1829 22.8334 87.008 22.9584C86.8081 23.0833 86.6831 23.3083 86.5831 23.5832C86.5082 23.8831 86.4582 24.3079 86.4582 24.8328V27.157C86.4582 28.5815 86.6831 29.9561 87.133 31.2807H85.0336C84.5338 30.0561 84.2839 28.6815 84.2839 27.182V24.8328C84.2839 23.5582 84.5838 22.6085 85.1836 21.9587C85.7834 21.3089 86.6581 20.984 87.8077 20.984C88.9574 20.984 89.8321 21.3089 90.4319 21.9587L90.4569 21.9337Z" fill="#6E6E70"/>
<path d="M101.03 26.74V28.6C101.03 29.208 100.894 29.648 100.622 29.92C100.358 30.184 99.9178 30.316 99.3018 30.316H98.7738C98.1578 30.316 97.7138 30.184 97.4418 29.92C97.1778 29.648 97.0458 29.208 97.0458 28.6V23.44C97.0458 22.824 97.1778 22.384 97.4418 22.12C97.7138 21.856 98.1578 21.724 98.7738 21.724H99.3018C99.9178 21.724 100.358 21.856 100.622 22.12C100.894 22.384 101.03 22.824 101.03 23.44V25.42L99.3978 25.24V23.38C99.3978 23.34 99.3778 23.32 99.3378 23.32H98.7378C98.6978 23.32 98.6778 23.34 98.6778 23.38V28.66C98.6778 28.7 98.6978 28.72 98.7378 28.72H99.3378C99.3778 28.72 99.3978 28.7 99.3978 28.66V26.74H101.03ZM101.631 30.22V25.816H101.391L101.511 24.22H103.263V24.856L103.695 24.22H103.887C104.719 24.22 105.243 24.48 105.459 25L105.987 24.22H106.239C106.855 24.22 107.295 24.352 107.559 24.616C107.831 24.88 107.967 25.32 107.967 25.936V28.624H108.207L108.087 30.22H106.335V25.876C106.335 25.836 106.315 25.816 106.275 25.816H105.615C105.615 25.848 105.615 25.888 105.615 25.936V30.22H103.983V25.876C103.983 25.836 103.963 25.816 103.923 25.816H103.263V30.22H101.631ZM108.565 27.94L110.197 28.06V28.564C110.197 28.604 110.217 28.624 110.257 28.624H110.977C111.017 28.624 111.037 28.604 111.037 28.564V28.204L109.237 27.544C109.109 27.504 108.965 27.42 108.805 27.292C108.645 27.164 108.565 26.964 108.565 26.692V25.288C108.565 24.944 108.669 24.672 108.877 24.472C109.085 24.272 109.357 24.172 109.693 24.172H110.941C111.557 24.172 111.997 24.304 112.261 24.568C112.533 24.832 112.669 25.272 112.669 25.888V26.452L111.037 26.332V25.828C111.037 25.788 111.017 25.768 110.977 25.768H110.257C110.217 25.768 110.197 25.788 110.197 25.828V26.176L111.997 26.836C112.125 26.876 112.269 26.96 112.429 27.088C112.589 27.216 112.669 27.416 112.669 27.688V29.104C112.669 29.44 112.565 29.712 112.357 29.92C112.149 30.12 111.877 30.22 111.541 30.22H110.293C109.677 30.22 109.233 30.088 108.961 29.824C108.697 29.552 108.565 29.112 108.565 28.504V27.94Z" fill="#00ADEE"/>
</svg>
